<?xml version="1.0" encoding="UTF-8" standalone="no"?>
<!DOCTYPE svg PUBLIC "-//W3C//DTD SVG 1.1//EN" "http://www.w3.org/Graphics/SVG/1.1/DTD/svg11.dtd">
 <svg version="1.0" xmlns="http://www.w3.org/2000/svg"  width="268.000000pt" height="142.000000pt" viewBox="0 0 268.000000 142.000000"  preserveAspectRatio="xMidYMid meet">  <g transform="translate(0.000000,142.000000) scale(0.100000,-0.100000)" fill="#3a5f27" stroke="none"> <path d="M51 1361 c-19 -12 -6 -76 26 -123 32 -47 112 -102 187 -128 57 -20 269 -41 254 -26 -3 4 -54 14 -112 22 -117 15 -225 56 -263 101 -13 14 -23 22 -23 17 0 -5 -11 8 -25 29 -14 20 -23 41 -20 46 3 6 1 12 -5 16 -17 10 -11 25 10 25 52 0 413 -188 428 -222 2 -5 12 -8 22 -8 13 0 17 -6 13 -18 -3 -14 29 -50 124 -138 70 -65 129 -122 131 -126 7 -16 21 -7 15 8 -6 17 -2 14 67 -47 l25 -22 -32 6 c-18 4 -33 3 -33 -1 0 -6 -122 -44 -155 -48 -5 0 -18 -4 -27 -8 -17 -8 -183 10 -200 20 -5 3 -19 7 -32 10 -36 6 -117 44 -140 65 -11 10 -28 21 -38 25 -10 3 -18 10 -18 15 0 9 22 12 105 11 50 0 50 0 10 7 -36 6 -38 7 -20 18 33 18 223 12 264 -9 18 -10 48 -20 67 -24 19 -3 32 -10 29 -14 -3 -4 3 -7 12 -6 9 0 18 -5 21 -13 3 -8 0 -11 -6 -7 -6 3 -13 2 -17 -4 -3 -5 3 -11 14 -11 28 -2 34 -3 46 -10 6 -4 26 -10 45 -14 35 -8 35 -8 -20 36 -68 55 -93 71 -147 92 -63 25 -198 38 -278 26 -76 -11 -165 -45 -165 -64 0 -21 85 -90 144 -118 135 -64 285 -78 416 -38 41 13 79 27 85 32 16 16 22 11 73 -58 115 -155 182 -319 182 -444 0 -54 1 -56 35 -72 43 -21 85 -22 110 -3 44 32 -19 243 -110 366 -19 26 -35 53 -35 59 0 6 -3 11 -8 11 -4 0 -30 30 -59 68 -69 90 -346 361 -416 406 -15 10 -30 30 -34 45 -27 116 -132 197 -300 235 -78 17 -199 21 -222 7z m242 -43 c42 -11 77 -24 77 -29 0 -5 8 -9 18 -9 11 0 27 -9 37 -20 10 -11 23 -19 29 -17 12 4 62 -53 59 -65 -2 -4 2 -8 7 -8 6 0 10 -9 10 -20 0 -25 -5 -25 -43 3 -32 23 -113 69 -234 133 -107 56 -94 67 40 32z m715 -672 c28 -30 52 -59 52 -65 0 -6 4 -11 9 -11 5 0 11 -10 15 -23 3 -13 15 -34 26 -47 11 -13 20 -31 20 -42 0 -10 4 -18 9 -18 14 0 60 -103 70 -155 11 -58 4 -92 -21 -98 -39 -11 -55 12 -71 102 -8 47 -24 110 -36 140 -11 30 -19 57 -16 59 2 2 -7 19 -20 37 -14 17 -25 40 -25 49 0 9 -4 15 -8 12 -4 -2 -9 5 -9 16 -1 12 -6 24 -10 27 -4 3 -14 18 -22 33 -8 15 -18 25 -22 22 -4 -2 -10 0 -14 6 -3 5 0 10 7 10 7 0 37 -24 66 -54z"/> <path d="M1014 1151 c-118 -34 -189 -97 -186 -169 2 -41 50 -144 66 -139 6 2 10 11 10 20 -1 9 1 15 5 14 8 -2 134 124 128 129 -2 3 -34 -25 -70 -61 -66 -65 -86 -77 -88 -52 -2 16 -5 31 -9 37 -7 12 -5 98 2 94 4 -3 8 3 8 14 0 13 14 25 43 37 23 10 49 24 57 31 16 12 66 23 138 30 45 5 56 -9 25 -32 -17 -12 -17 -13 -1 -14 9 0 20 5 23 10 10 17 63 40 77 35 24 -10 48 -62 48 -105 0 -50 -19 -88 -57 -116 -50 -37 -67 -42 -173 -54 -124 -15 -162 -29 -76 -30 69 0 177 17 221 36 37 15 94 70 106 102 18 46 10 97 -21 144 -17 25 -40 48 -53 52 -43 11 -163 4 -223 -13z"/> <path d="M1070 1040 c-14 -11 -20 -20 -15 -20 6 0 21 9 35 20 14 11 21 20 15 20 -5 0 -21 -9 -35 -20z"/> <path d="M391 856 c2 -2 18 -6 34 -10 22 -5 26 -4 15 4 -14 9 -59 15 -49 6z"/> <path d="M1230 744 c-80 -26 -101 -38 -120 -68 -23 -39 -26 -72 -6 -79 8 -3 16 -2 18 2 6 16 217 87 291 97 56 9 68 1 56 -34 -20 -58 -172 -113 -229 -82 -12 7 -20 7 -16 2 4 -6 -9 -8 -34 -5 -25 4 -40 2 -40 -5 0 -14 99 -26 169 -19 119 10 211 94 172 155 -19 31 -200 55 -261 36z m125 -34 c3 -5 -27 -19 -67 -30 -40 -12 -90 -28 -110 -36 -38 -14 -38 -14 -38 11 0 20 6 27 30 31 17 4 27 11 23 17 -3 5 -2 7 4 4 5 -3 23 -2 39 3 40 12 112 12 119 0z"/> <path d="M550 599 c-67 -13 -130 -39 -130 -54 0 -17 66 -76 121 -108 55 -32 179 -67 237 -67 24 0 42 -3 40 -7 -8 -19 -83 -152 -104 -185 -14 -21 -31 -38 -39 -38 -8 0 -15 -4 -15 -10 0 -6 27 -10 60 -10 33 0 60 4 60 10 0 6 -9 10 -20 10 -23 0 -24 1 -8 35 10 23 17 25 68 25 50 0 60 -3 74 -25 21 -31 20 -35 -5 -35 -11 0 -19 -5 -17 -11 2 -6 7 -10 11 -10 4 1 32 1 62 1 30 0 55 5 55 10 0 6 -6 10 -14 10 -12 0 -136 209 -136 229 0 4 14 8 30 9 26 1 56 8 149 38 29 9 -88 108 -173 147 -41 18 -190 48 -235 46 -14 -1 -46 -5 -71 -10z m219 -43 c24 -3 47 -10 51 -16 4 -7 10 -11 14 -11 3 1 25 -7 49 -18 31 -14 36 -20 20 -20 -12 -1 -33 3 -47 9 -17 6 -26 6 -26 0 0 -6 6 -10 12 -10 7 0 43 -12 80 -26 69 -26 80 -44 28 -44 -17 0 -52 -8 -79 -19 -28 -10 -51 -17 -53 -15 -2 1 -35 8 -73 14 -38 6 -72 14 -75 18 -3 4 -9 7 -15 8 -24 1 -65 17 -65 25 0 5 -9 9 -20 9 -11 0 -28 7 -37 15 -10 9 -31 27 -47 40 -17 15 -23 25 -15 26 34 2 74 11 88 20 15 9 112 7 210 -5z m106 -278 c21 -40 46 -88 57 -105 11 -18 16 -33 11 -33 -9 0 -25 26 -79 128 -32 59 -40 82 -30 82 2 0 21 -33 41 -72z m-26 -14 c12 -19 21 -37 21 -40 0 -2 -21 -4 -46 -4 -33 0 -45 4 -41 13 17 39 33 67 39 67 3 0 15 -16 27 -36z"/> <path d="M2398 388 c-9 -23 3 -38 29 -38 20 0 24 4 21 23 -3 25 -42 37 -50 15z"/> <path d="M1330 361 c0 -6 9 -11 20 -11 19 0 20 -7 20 -105 0 -98 -1 -105 -20 -105 -11 0 -20 -6 -20 -12 0 -10 19 -12 70 -10 38 2 70 8 70 13 0 5 -9 9 -19 9 -16 0 -20 9 -23 50 -1 28 1 50 5 50 4 0 33 -27 64 -60 49 -54 59 -60 94 -60 21 0 39 5 39 10 0 6 -6 10 -13 10 -13 0 -114 97 -106 103 2 2 16 8 32 15 15 6 33 23 39 37 10 22 9 29 -10 48 -20 20 -35 22 -132 25 -75 3 -110 0 -110 -7z m80 -81 c0 -38 -3 -70 -7 -70 -5 0 -8 32 -9 70 -1 39 3 70 8 70 4 0 8 -31 8 -70z m85 60 c14 -5 28 -17 32 -26 9 -23 -31 -54 -68 -54 -28 0 -29 2 -29 45 0 49 11 55 65 35z m67 -42 c-8 -8 -12 -9 -12 -1 0 6 -3 20 -6 30 -7 17 -6 17 12 1 14 -14 16 -21 6 -30z m-52 -85 c12 -16 30 -36 38 -45 30 -35 5 -17 -38 27 -24 25 -40 45 -34 45 6 0 21 -12 34 -27z m-102 -43 c1 -16 -2 -30 -8 -30 -11 0 -14 43 -3 53 9 10 8 10 11 -23z"/> <path d="M2115 308 c-35 -20 -46 -48 -20 -48 9 0 18 7 21 15 7 18 35 20 52 3 19 -19 14 -25 -33 -37 -49 -12 -70 -39 -61 -77 8 -29 50 -42 80 -24 14 9 21 10 24 1 6 -18 82 -14 82 4 0 8 -6 15 -14 15 -10 0 -15 19 -18 66 -3 50 -9 70 -23 80 -23 17 -63 18 -90 2z m93 -97 l-2 -66 -3 65 c-2 35 -9 71 -16 80 -11 13 -10 13 6 1 13 -11 17 -27 15 -80z m-25 -11 c-7 -26 -41 -46 -55 -32 -15 15 -2 41 24 51 29 11 37 6 31 -19z"/> <path d="M2398 313 c-29 -4 -40 -33 -14 -33 18 0 22 -37 18 -139 -3 -62 -7 -74 -23 -78 -23 -6 -26 -33 -3 -33 28 0 52 19 63 51 16 46 15 239 -1 238 -7 -1 -25 -4 -40 -6z m29 -170 c-3 -10 -5 -2 -5 17 0 19 2 27 5 18 2 -10 2 -26 0 -35z"/> <path d="M2507 300 c-53 -42 -40 -147 21 -168 37 -13 100 1 109 24 8 20 -5 30 -19 16 -20 -20 -65 -14 -82 10 -9 12 -16 26 -16 30 0 5 27 8 60 8 69 0 80 11 56 58 -24 47 -84 57 -129 22z m83 -25 c17 -21 3 -35 -36 -35 -37 0 -39 2 -24 31 13 23 43 25 60 4z m-66 -115 c4 -8 -2 -4 -13 9 -12 13 -21 35 -21 50 0 46 15 46 20 -1 3 -23 9 -50 14 -58z"/> <path d="M1675 278 c-49 -26 -60 -86 -25 -131 54 -68 200 -24 200 60 0 14 -13 37 -29 54 -25 24 -37 29 -78 29 -26 0 -57 -6 -68 -12z m97 -25 c41 -48 22 -113 -32 -113 -52 0 -80 72 -43 112 20 23 55 23 75 1z m-101 -77 c8 -24 7 -27 -6 -16 -8 7 -15 27 -14 44 0 17 3 24 6 16 2 -8 9 -28 14 -44z"/> <path d="M1893 275 c-32 -23 -30 -60 5 -73 47 -18 95 -25 88 -13 -4 6 -1 11 8 11 13 0 13 -4 0 -30 -13 -24 -22 -30 -49 -30 -24 0 -39 7 -49 22 -18 25 -21 23 -30 -13 -5 -24 -3 -27 29 -33 75 -14 140 18 133 65 -2 19 -14 27 -58 40 -63 19 -73 42 -22 47 27 3 35 -1 39 -17 8 -32 35 -27 31 7 -3 25 -7 27 -53 30 -33 2 -57 -3 -72 -13z"/> <path d="M2260 230 c0 -19 5 -21 57 -18 46 2 59 7 61 21 3 15 -5 17 -57 17 -55 0 -61 -2 -61 -20z"/> </g> </svg> 
